HIERARCHY
ROOT SpineBase
{
  OFFSET 0.000000 0.000000 0.000000
  CHANNELS 6 Xposition Yposition Zposition Zrotation Xrotation Yrotation
  JOINT SpineMid
  {
    OFFSET -0.000000 28.210620 0.000000
    CHANNELS 3 Zrotation Xrotation Yrotation
    JOINT SpineShoulder
    {
      OFFSET 0.039578 21.020644 -0.655779
      CHANNELS 3 Zrotation Xrotation Yrotation
      JOINT Neck
      {
        OFFSET 0.055690 6.971960 -0.479519
        CHANNELS 3 Zrotation Xrotation Yrotation
        JOINT Head
        {
          OFFSET 3.025982 13.017266 -0.827904
          CHANNELS 3 Zrotation Xrotation Yrotation
          End Site
          {
            OFFSET 0 0 0
          }
        }
      }
      JOINT ShoulderLeft
      {
        OFFSET -14.299494 -3.285878 -4.916836
        CHANNELS 3 Zrotation Xrotation Yrotation
        JOINT ElbowLeft
        {
          OFFSET -6.535763 -20.881769 -0.479247
          CHANNELS 3 Zrotation Xrotation Yrotation
          JOINT WristLeft
          {
            OFFSET -5.152410 -22.342812 -3.872338
            CHANNELS 3 Zrotation Xrotation Yrotation
            JOINT HandLeft
            {
              OFFSET -2.640126 -6.878108 -0.333769
              CHANNELS 3 Zrotation Xrotation Yrotation
              JOINT HandTipLeft
              {
                OFFSET -1.215572 -5.945667 -0.443061
                CHANNELS 3 Zrotation Xrotation Yrotation
                End Site
                {
                  OFFSET 0 0 0
                }
              }
              JOINT ThumbLeft
              {
                OFFSET 1.996548 -1.857443 -2.655415
                CHANNELS 3 Zrotation Xrotation Yrotation
                End Site
                {
                  OFFSET 0 0 0
                }
              }
            }
          }
        }
      }
      JOINT ShoulderRight
      {
        OFFSET 15.798744 -5.429919 2.977190
        CHANNELS 3 Zrotation Xrotation Yrotation
        JOINT ElbowRight
        {
          OFFSET 2.063598 -22.183402 4.359487
          CHANNELS 3 Zrotation Xrotation Yrotation
          JOINT WristRight
          {
            OFFSET -1.706498 -21.530480 -5.336540
            CHANNELS 3 Zrotation Xrotation Yrotation
            JOINT HandRight
            {
              OFFSET 0.263053 -6.918424 -1.764184
              CHANNELS 3 Zrotation Xrotation Yrotation
              JOINT HandTipRight
              {
                OFFSET 0.820095 -6.332122 1.199420
                CHANNELS 3 Zrotation Xrotation Yrotation
                End Site
                {
                  OFFSET 0 0 0
                }
              }
              JOINT ThumbRight
              {
                OFFSET 0.261499 0.521539 -3.044946
                CHANNELS 3 Zrotation Xrotation Yrotation
                End Site
                {
                  OFFSET 0 0 0
                }
              }
            }
          }
        }
      }
    }
  }
  JOINT HipLeft
  {
    OFFSET -6.990765 0.265152 -4.098512
    CHANNELS 3 Zrotation Xrotation Yrotation
    JOINT KneeLeft
    {
      OFFSET -7.827670 -36.033897 -4.462528
      CHANNELS 3 Zrotation Xrotation Yrotation
      JOINT AnkleLeft
      {
        OFFSET -3.841679 -36.396854 2.322190
        CHANNELS 3 Zrotation Xrotation Yrotation
        JOINT FootLeft
        {
          OFFSET -2.349427 -6.220400 -10.059359
          CHANNELS 3 Zrotation Xrotation Yrotation
          End Site
          {
            OFFSET 0 0 0
          }
        }
      }
    }
  }
  JOINT HipRight
  {
    OFFSET 5.983663 0.376625 -2.029169
    CHANNELS 3 Zrotation Xrotation Yrotation
    JOINT KneeRight
    {
      OFFSET 0.194035 -28.248289 3.981010
      CHANNELS 3 Zrotation Xrotation Yrotation
      JOINT AnkleRight
      {
        OFFSET -2.412683 -25.194369 10.971398
        CHANNELS 3 Zrotation Xrotation Yrotation
        JOINT FootRight
        {
          OFFSET -0.425911 8.724190 -6.300440
          CHANNELS 3 Zrotation Xrotation Yrotation
          End Site
          {
            OFFSET 0 0 0
          }
        }
      }
    }
  }
}
MOTION
Frames: 10
Frame Time: 0.033333
60.788845 79.933421 432.108712 0.000000 0.000000 -9.062008 -0.000000 0.000000 9.062008 -0.000000 0.000000 0.000000 -0.000000 0.000000 0.000000 0.000000 0.000000 0.000000 -0.000000 0.000000 0.000000 -0.000000 0.000000 0.000000 -0.000000 0.000000 0.000000 -0.000000 0.000000 0.000000 0.000000 0.000000 0.000000 0.000000 0.000000 0.000000 -0.000000 0.000000 0.000000 -0.000000 0.000000 0.000000 -0.000000 0.000000 0.000000 -0.000000 0.000000 0.000000 0.000000 0.000000 0.000000 0.000000 0.000000 0.000000 -0.000000 0.000000 9.062008 -0.000000 0.000000 0.000000 -0.000000 0.000000 0.000000 0.000000 0.000000 0.000000 -0.000000 0.000000 9.062008 -0.000000 0.000000 0.000000 -0.000000 0.000000 0.000000 0.000000 0.000000 0.000000
60.213300 79.920707 431.838742 -0.371889 -0.036530 -8.625505 0.362205 0.091889 8.625096 -0.000000 0.000000 0.000000 -0.000000 0.000000 0.000000 0.000000 0.000000 0.000000 -0.921638 -0.573391 0.195537 1.910631 0.076039 -0.268718 1.757792 1.998057 -0.714985 -4.086969 -0.810836 0.601723 0.000000 0.000000 0.000000 0.000000 0.000000 0.000000 1.468195 -0.033295 0.285518 1.943796 -1.444415 -0.977955 -0.548178 -0.507179 -0.053266 -1.426553 4.278615 1.363992 0.000000 0.000000 0.000000 0.000000 0.000000 0.000000 1.157101 0.308412 8.500180 -0.926337 1.449173 -0.047287 2.755798 -1.170403 -4.198779 0.000000 0.000000 0.000000 0.844176 -0.627143 8.673879 0.403448 0.935142 0.266097 -1.632002 -0.271059 -0.952264 0.000000 0.000000 0.000000
59.642811 79.896479 431.491931 -0.643835 -0.041054 -8.286148 0.631199 0.133409 8.285183 -0.000000 0.000000 0.000000 -0.000000 0.000000 0.000000 0.000000 0.000000 0.000000 -1.516329 -0.981766 0.327805 3.730807 0.305314 -0.612531 3.384982 3.572028 -1.375405 -7.328401 -1.065346 0.923325 0.000000 0.000000 0.000000 0.000000 0.000000 0.000000 2.758641 -0.006723 0.540549 3.802903 -2.811256 -1.807784 -1.496882 -0.688583 0.059915 -2.220816 7.955038 2.466719 0.000000 0.000000 0.000000 0.000000 0.000000 0.000000 2.152135 0.397126 8.077359 -1.613237 2.831114 -0.106368 4.675612 -2.355775 -7.157373 0.000000 0.000000 0.000000 1.553385 -1.173630 8.385644 0.653401 1.589338 0.464614 -3.203258 -1.382741 -1.971690 0.000000 0.000000 0.000000
59.077378 79.860736 431.068280 -0.815910 -0.013618 -8.045646 0.805974 0.127675 8.044651 -0.000000 0.000000 0.000000 -0.000000 0.000000 0.000000 0.000000 0.000000 0.000000 -1.788028 -1.225265 0.403554 5.481050 0.682439 -1.031176 4.963327 4.795604 -1.977519 -9.857419 -0.796586 1.032900 0.000000 0.000000 0.000000 0.000000 0.000000 0.000000 3.872113 0.077211 0.763500 5.457094 -4.013518 -2.487049 -2.614040 -0.681835 0.268770 -2.465629 11.039951 3.315417 0.000000 0.000000 0.000000 0.000000 0.000000 0.000000 2.987299 0.279510 7.799361 -2.058179 4.115052 -0.175381 5.810940 -3.416274 -9.071876 0.000000 0.000000 0.000000 2.134973 -1.639196 8.199127 0.748338 1.967161 0.606157 -4.849668 -3.378740 -3.156084 0.000000 0.000000 0.000000
58.517001 79.813479 430.567789 -0.888242 0.045719 -7.905219 0.886089 0.076880 7.904979 -0.000000 0.000000 0.000000 -0.508090 0.805920 -0.215962 0.000000 0.000000 0.000000 -1.735552 -1.302725 0.425948 7.183571 1.207695 -1.530020 6.572840 5.724851 -2.519592 -11.783573 -0.041526 0.957888 0.000000 0.000000 0.000000 0.000000 0.000000 0.000000 4.810001 0.216326 0.953462 6.802058 -4.974675 -3.025599 -3.710750 -0.592442 0.514540 -2.232964 13.516913 3.927384 0.000000 0.000000 0.000000 0.000000 0.000000 0.000000 3.666485 -0.035070 7.670574 -2.260633 5.276278 -0.254975 6.215262 -4.266761 -10.107398 0.000000 0.000000 0.000000 2.595131 -2.023433 8.115369 0.686248 2.072093 0.697740 -6.767752 -6.518924 -4.670851 0.000000 0.000000 0.000000
57.961681 79.754708 429.990457 -0.861004 0.136888 -7.865662 0.871636 -0.017759 7.866825 -0.000000 0.000000 0.000000 -0.624303 0.928299 -0.250257 0.000000 0.000000 0.000000 -1.352169 -1.211288 0.394511 8.861204 1.885344 -2.119890 8.300286 6.405920 -2.999388 -13.212433 1.147384 0.696189 0.000000 0.000000 0.000000 0.000000 0.000000 0.000000 5.573972 0.408844 1.110109 7.756157 -5.635799 -3.440237 -4.646013 -0.490561 0.750481 -1.585561 15.351736 4.327906 0.000000 0.000000 0.000000 0.000000 0.000000 0.000000 4.195282 -0.541173 7.694310 -2.222311 6.296724 -0.347750 5.927309 -4.860332 -10.375364 0.000000 0.000000 0.000000 2.938907 -2.325806 8.134689 0.464699 1.906387 0.742884 -9.313446 -11.337100 -6.841188 0.000000 0.000000 0.000000
57.341234 79.648812 429.204547 -0.634377 0.320835 -7.829361 0.672174 -0.231409 7.832494 -0.000000 0.000000 0.000000 -0.743693 0.963728 -0.264819 0.000000 0.000000 0.000000 0.401877 -1.024160 0.315338 9.936820 3.185808 -3.039946 12.030155 7.300079 -3.853985 -15.826506 1.801119 0.382896 0.000000 0.000000 0.000000 0.000000 0.000000 0.000000 6.584261 0.364858 1.302110 8.435052 -5.846486 -3.950454 -5.642649 -0.562231 1.034063 0.695947 15.961540 4.566189 0.000000 0.000000 0.000000 0.000000 0.000000 0.000000 4.588014 -1.636275 7.858014 -1.804813 7.462221 -0.521251 4.944009 -5.592558 -10.081002 0.000000 0.000000 0.000000 3.069285 -2.674635 8.161036 -0.270043 1.309736 0.621030 -15.716765 -20.836288 -12.668417 0.000000 0.000000 0.000000
56.730091 79.537170 428.360853 -0.334075 0.508050 -7.908541 0.400814 -0.457242 7.911622 0.925600 0.480022 0.055970 -1.823911 0.576065 -0.364812 0.000000 0.000000 0.000000 0.873010 -0.866938 0.037395 12.047394 4.248752 -4.027713 14.556929 7.438295 -4.050282 -15.977019 4.341839 -0.640499 0.000000 0.000000 0.000000 0.000000 0.000000 0.000000 6.269248 -0.019813 1.419334 8.758926 -6.164565 -4.211187 -7.315361 0.055892 1.483712 4.625458 17.385739 4.432473 0.000000 0.000000 0.000000 0.000000 0.000000 0.000000 4.840444 -2.869515 8.191934 -1.108467 8.602301 -0.751140 0.753191 -4.503053 -5.671139 0.000000 0.000000 0.000000 3.250921 -2.950936 8.324693 -1.377278 0.620361 0.387988 -24.960778 -35.391379 -21.929494 0.000000 0.000000 0.000000
56.192120 79.444941 427.564619 -0.019329 0.681347 -8.214981 0.487082 0.148480 8.231144 0.784621 -0.075601 0.074201 -2.284789 0.413900 -0.410206 0.000000 0.000000 0.000000 0.503675 -0.374677 -0.211169 15.744792 4.786773 -4.924353 16.269625 8.232720 -4.601880 -17.350304 7.177407 -2.012873 0.000000 0.000000 0.000000 0.000000 0.000000 0.000000 6.129410 0.127069 1.471301 7.960499 -5.419887 -4.321271 -6.336833 -0.092733 1.267135 3.794586 19.068857 4.718156 0.000000 0.000000 0.000000 0.000000 0.000000 0.000000 4.971142 -3.801127 8.695310 -0.484380 8.746900 -0.849964 0.807544 -4.248687 -7.215411 0.000000 0.000000 0.000000 3.154580 -2.991139 8.669571 -2.025131 -0.454398 0.276416 -41.858732 -49.375686 -38.753432 0.000000 0.000000 0.000000
55.711169 79.393113 426.898472 0.189908 0.806860 -8.614068 0.473955 0.213269 8.634905 0.731664 -0.022874 0.077063 -2.381527 -0.082927 -0.365552 0.000000 0.000000 0.000000 1.176841 0.470025 -0.591737 17.464034 5.080138 -5.343328 18.359196 8.593462 -4.917855 -18.702306 7.734169 -2.700740 0.000000 0.000000 0.000000 0.000000 0.000000 0.000000 5.776352 0.576677 1.471533 6.352368 -4.418227 -4.177168 -5.516198 -0.316296 1.158133 2.736374 14.457387 4.410435 0.000000 0.000000 0.000000 0.000000 0.000000 0.000000 5.137826 -4.460774 9.241314 -0.054347 8.618704 -0.890996 -0.264896 -4.995254 -6.271799 0.000000 0.000000 0.000000 3.236775 -2.808988 9.117051 -2.123575 -1.414846 0.388525 -60.425178 -60.228648 -57.648926 0.000000 0.000000 0.000000
